<svg xmlns="http://www.w3.org/2000/svg" width="15.011" height="27" viewBox="0 0 15.011 27">
  <path id="Kształt_4" data-name="Kształt 4" d="M299.005,1714.937h-.826v.88h-.632v-.965h-.88v.794h-.715v-.766h-1.072v3.634h-1.429v-3.634h-1.127v.654h-.537v-2.258l.207-.212v-2.357h-1.1v.937h-.688v-.823h-.742v.682h-.44v-.738H288.5v-4.571l-.193-1.192-.165,1.107v5.423h-.467v-.625H286.8v2.186h.77v4.571h-.358v.824h-.77v-.738h-.659v2.384h.852v3.975h-1.265v.766h-.412v-.766h-.962v2.442h1.539V1732l3.055-.064.024-3.4s.137-.88.522-1.079a2.577,2.577,0,0,1,1.044-.171l.8.114a1.611,1.611,0,0,1,.5.6c.092.262.145,3,.161,3.875l7.372-.156Zm-10.051,7.991-1.03,0v-1.484s.257-.759.552-.759.478.608.478.8Zm.559-6.689H288.5v-1.453s.253-.745.542-.745.468.6.468.782Zm7.976,3.313-1.072,0V1718s.269-.791.574-.791.5.633.5.831Z" transform="translate(-283.995 -1705)" fill="#fff"/>
</svg>
