<svg xmlns="http://www.w3.org/2000/svg" width="13" height="23" viewBox="0 0 13 23">
  <path id="Kształt_5" data-name="Kształt 5" d="M543.892,1732h-8.784a2.1,2.1,0,0,1-2.108-2.085v-18.831a2.1,2.1,0,0,1,2.108-2.085h8.784a2.1,2.1,0,0,1,2.108,2.085v18.831A2.1,2.1,0,0,1,543.892,1732Zm1.616-21.124a1.4,1.4,0,0,0-1.405-1.39H534.9a1.4,1.4,0,0,0-1.405,1.39v19.178a1.4,1.4,0,0,0,1.405,1.39H544.1a1.4,1.4,0,0,0,1.405-1.39Zm-11.454,1.668h10.892v15.843H534.054Zm5.411,16.26a1.042,1.042,0,1,1-1.054,1.042A1.048,1.048,0,0,1,539.465,1728.8Zm-.492,1.39a.14.14,0,0,0,.141.139h.7a.14.14,0,0,0,.141-.139v-.695a.14.14,0,0,0-.141-.139h-.7a.14.14,0,0,0-.141.139Zm.176-.785h.633a.126.126,0,0,1,.126.125v.625a.126.126,0,0,1-.126.125h-.633a.126.126,0,0,1-.127-.125v-.625A.126.126,0,0,1,539.149,1729.408Z" transform="translate(-533 -1709)" fill="#fff"/>
</svg>
