<svg xmlns="http://www.w3.org/2000/svg" width="17.002" height="20.004" viewBox="0 0 17.002 20.004">
  <path id="Kształt_3" data-name="Kształt 3" d="M537.066,1643.055a10.084,10.084,0,0,0-3.579.927,5.421,5.421,0,0,0-2.526,2.29,5.011,5.011,0,0,0-.251,4.039,5.383,5.383,0,0,0,2.934,2.837,26.614,26.614,0,0,0,5.22,1.5,6.912,6.912,0,0,1,2.787,1.088,1.794,1.794,0,0,1,.694,1.372,1.945,1.945,0,0,1-.761,1.606,4.223,4.223,0,0,1-2.475.939,6.1,6.1,0,0,1-2.294-.153,3.226,3.226,0,0,1-1.883-1.369c-.531-.753-.717-1.724-1.422-2.354a2.1,2.1,0,0,0-2.111-.4,1.958,1.958,0,0,0-1.4,1.932,5.435,5.435,0,0,0,1.8,3.51,8.43,8.43,0,0,0,5.214,2.115,12.26,12.26,0,0,0,6.771-1.082,5.655,5.655,0,0,0,2.967-6.8,4.891,4.891,0,0,0-2.442-2.806,26.041,26.041,0,0,0-6.243-1.942,6.145,6.145,0,0,1-2.822-1.164,1.321,1.321,0,0,1-.1-1.833,3.24,3.24,0,0,1,1.87-.979,6.721,6.721,0,0,1,2.839.109,2.834,2.834,0,0,1,1.444,1.072c.543.683.836,1.575,1.565,2.1a2.18,2.18,0,0,0,2.793-.537,2.225,2.225,0,0,0,.3-2.111,5.161,5.161,0,0,0-2.509-2.843,11.33,11.33,0,0,0-6.384-1.065" transform="translate(-529.999 -1642.998)" fill="#fff"/>
</svg>
