<svg xmlns="http://www.w3.org/2000/svg" width="57.998" height="55.008" viewBox="0 0 57.998 55.008">
  <path id="Kształt_6" data-name="Kształt 6" d="M842.258,1708.9a27.9,27.9,0,0,1-9.305,14.441,23.723,23.723,0,0,1-4.4,2.922c.632-2.072,1.435-4.092,2.168-6.133,2.492-6.927,5.013-13.849,7.507-20.776a21.581,21.581,0,0,0,1.273-6.14c.118-1.337-.2-2.663-.113-4a14.477,14.477,0,0,1,1.59,3.17A26.958,26.958,0,0,1,842.258,1708.9Zm-10.291-14.119a13.2,13.2,0,0,1,1.321,9.11,72.631,72.631,0,0,1-2.74,8.837c-.734,2.1-1.2,4.28-2.039,6.346a23.6,23.6,0,0,1-1.516-3.765c-2.934-8.618-6.093-17.163-9.079-25.766a12.625,12.625,0,0,0,3.909-.45c.974-.329.5-1.905-.479-1.859-3.474.031-6.947.459-10.423.217-1.777-.046-3.55-.2-5.327-.217-.787-.079-1.155.964-.891,1.532,1.011.917,2.525.61,3.781.856.326.022.375.4.5.617,1.314,3.576,2.668,7.138,4.011,10.705a1.365,1.365,0,0,1,.039,1.078q-2.593,7.323-5.151,14.656a21.565,21.565,0,0,1-1.06,2.786c-1.71-4.493-3.21-9.061-4.837-13.583q-2.472-6.993-4.932-13.991a21.533,21.533,0,0,1-.759-2.336,12.717,12.717,0,0,0,3.818-.43c.928-.371.442-1.907-.523-1.888-3.27.026-6.535.3-9.808.3a9.89,9.89,0,0,1,1.969-2.632,29.907,29.907,0,0,1,24.061-9.856,28.95,28.95,0,0,1,17.657,7.18,5.521,5.521,0,0,0-3.036.957,5.009,5.009,0,0,0-1.946,4.776C828.988,1690.482,830.608,1692.615,831.967,1694.782Zm-44.2,19.534a26.462,26.462,0,0,1-.171-23.125,9.061,9.061,0,0,1,.458.906c4.423,11.726,8.977,23.406,13.4,35.132A28.065,28.065,0,0,1,787.763,1714.316Zm26.345-8.627c.12-.288.273-.562.417-.839,1.433,3.238,2.527,6.6,3.821,9.889q2.007,5.117,4,10.238c.435,1.172.967,2.312,1.305,3.517a31.175,31.175,0,0,1-17.808.4c.079-.318.157-.636.252-.95Q810.119,1716.821,814.108,1705.689Z" transform="translate(-785.001 -1674.996)" fill="#9a9a9a"/>
</svg>
