<svg xmlns="http://www.w3.org/2000/svg" width="43" height="43" viewBox="0 0 43 43">
  <path id="Kształt_7" data-name="Kształt 7" d="M901.688,1693.322a6.541,6.541,0,0,1-2.7,1.2,9.483,9.483,0,0,1-2.836,9.689c-1.4-1.435-2.831-2.832-4.211-4.281a4.71,4.71,0,0,0,1.249-1.994,3.452,3.452,0,0,0-.436-2.689,3.547,3.547,0,0,0-2.813-1.62,4.05,4.05,0,0,0-2.968,1.319c-2.13,2.241-4.357,4.387-6.535,6.58-.9.879-1.766,1.8-2.692,2.655-1.44-1.387-2.847-2.812-4.229-4.258,2.022-2.117,4.129-4.154,6.183-6.239,1.39-1.387,2.759-2.8,4.215-4.116a9.406,9.406,0,0,1,6.495-1.988c.7.052,1.375.221,2.07.284a5.723,5.723,0,0,1,2.859-4.137,6.116,6.116,0,0,1,4.4-.561,5.891,5.891,0,0,1,4.2,5.641A5.637,5.637,0,0,1,901.688,1693.322ZM877.5,1694.95a4.227,4.227,0,0,0-2.227-1.3,4.4,4.4,0,0,0-1.538.07,3.609,3.609,0,0,0-2.492,4.1,6.287,6.287,0,0,0,2.219,3.015c2.266,2.26,4.5,4.551,6.774,6.806.5.508,1,1.015,1.48,1.547-.148.137-.3.275-.441.414-.811.942-1.743,1.77-2.6,2.664a11.512,11.512,0,0,1-1.2,1.134c-2.293-2.253-4.554-4.539-6.846-6.792a17.162,17.162,0,0,1-1.495-1.594,17.764,17.764,0,0,1-1.709-1.683,9.418,9.418,0,0,1-2.267-6.653,20.3,20.3,0,0,1,.3-2.279,6.024,6.024,0,0,1-3.381-2.381,5.919,5.919,0,0,1-.683-5.251,5.842,5.842,0,0,1,6.792-3.648,6.2,6.2,0,0,1,3.19,2.046,7.392,7.392,0,0,1,1.168,2.561,19.555,19.555,0,0,1,2.753-.167,9.631,9.631,0,0,1,6.458,3.126Q879.656,1692.845,877.5,1694.95Zm-12.091,19.621a9.485,9.485,0,0,1,1.211-7.428,9.67,9.67,0,0,1,1.607-1.926c.274.012.442.371.6.576,1.293,1.13,2.441,2.417,3.684,3.6-.253.34-.542.652-.781,1a12.164,12.164,0,0,0-.652,1.5,4.405,4.405,0,0,0,.72,2.323,3.734,3.734,0,0,0,2.728,1.52,3.99,3.99,0,0,0,2.933-1.291c2.418-2.519,4.92-4.957,7.4-7.417a25.028,25.028,0,0,1,1.93-1.847c.49.54,1.042,1.022,1.495,1.6.956.817,1.8,1.782,2.7,2.667-.861.868-1.714,1.745-2.608,2.581l-.085.009a9.822,9.822,0,0,1-1.176,1.268c-2.059,2.054-4.1,4.128-6.194,6.147a8.271,8.271,0,0,1-2.543,1.614,10.448,10.448,0,0,1-5.955.508,5.971,5.971,0,0,1-2.361,3.381,5.742,5.742,0,0,1-5.311.681,6.245,6.245,0,0,1-3.207-2.967,5.923,5.923,0,0,1-.154-4.573A6.074,6.074,0,0,1,865.409,1714.571Zm17.787,3.615c1.281-1.235,2.484-2.553,3.8-3.751a3.961,3.961,0,0,0,2.791,1.31,3.519,3.519,0,0,0,3.379-4.375,7.6,7.6,0,0,0-2.366-3.042c-2.676-2.712-5.391-5.384-8.042-8.119.949-1.077,2.018-2.04,3.015-3.072A14.515,14.515,0,0,1,887,1695.96c3.341,3.277,6.63,6.613,9.9,9.963a8.341,8.341,0,0,1,1.934,3.319,10.287,10.287,0,0,1,.281,5.22,6.537,6.537,0,0,1,3.11,1.568,5.9,5.9,0,0,1,1.013,7.1,6.019,6.019,0,0,1-4.234,2.814,5.829,5.829,0,0,1-3.368-.531,6.386,6.386,0,0,1-2.37-2.262,8.981,8.981,0,0,1-.74-1.739,11.221,11.221,0,0,1-4.448.258,9.626,9.626,0,0,1-5.3-2.945C882.779,1718.5,883.067,1718.362,883.2,1718.186Z" transform="translate(-861 -1683)" fill="#9a9a9a"/>
</svg>
